<svg xmlns="http://www.w3.org/2000/svg" version="1.1" xmlns:xlink="http://www.w3.org/1999/xlink" xmlns:svgjs="http://svgjs.com/svgjs" width="1440" height="800" preserveAspectRatio="none" viewBox="0 0 1440 800"><g mask="url(&quot;#SvgjsMask1003&quot;)" fill="none"><rect width="1440" height="800" x="0" y="0" fill="rgba(20, 20, 20, 1)"></rect><path d="M71 800L871 0L1201 0L401 800z" fill="url(#SvgjsLinearGradient1004)"></path><path d="M550.2 800L1350.2 0L1600.7 0L800.7 800z" fill="url(#SvgjsLinearGradient1004)"></path><path d="M1367 800L567 0L312 0L1112 800z" fill="url(#SvgjsLinearGradient1005)"></path><path d="M879.8 800L79.79999999999995 0L-472.20000000000005 0L327.79999999999995 800z" fill="url(#SvgjsLinearGradient1005)"></path><path d="M921.57014540844 800L1440 281.57014540844L1440 800z" fill="url(#SvgjsLinearGradient1004)"></path><path d="M0 800L518.42985459156 800L 0 281.57014540844z" fill="url(#SvgjsLinearGradient1005)"></path></g><defs><mask id="SvgjsMask1003"><rect width="1440" height="800" fill="#ffffff"></rect></mask><linearGradient x1="0%" y1="100%" x2="100%" y2="0%" id="SvgjsLinearGradient1004"><stop stop-color="rgba(82, 79, 79, 0.16)" offset="0"></stop><stop stop-opacity="0" stop-color="rgba(82, 79, 79, 0.16)" offset="0.66"></stop></linearGradient><linearGradient x1="100%" y1="100%" x2="0%" y2="0%" id="SvgjsLinearGradient1005"><stop stop-color="rgba(82, 79, 79, 0.16)" offset="0"></stop><stop stop-opacity="0" stop-color="rgba(82, 79, 79, 0.16)" offset="0.66"></stop></linearGradient></defs></svg>